/* XPM */
static char * ghostview_xpm[] = {
"48 48 237 2",
"  	c None",
". 	c #B1B1B1",
"+ 	c #BBBBBB",
"@ 	c #888888",
"# 	c #696969",
"$ 	c #C5C5C5",
"% 	c #838383",
"& 	c #CFCFCF",
"* 	c #6B6B6B",
"= 	c #505050",
"- 	c #353535",
"; 	c #B8B8B8",
"> 	c #2F2F2F",
", 	c #757575",
"' 	c #B9B9B9",
") 	c #BDBDBD",
"! 	c #929292",
"~ 	c #565656",
"{ 	c #4F4F4F",
"] 	c #3B3B3B",
"^ 	c #C3C3C3",
"/ 	c #FCFCFC",
"( 	c #616161",
"_ 	c #BCBCBC",
": 	c #464646",
"< 	c #303030",
"[ 	c #2A2A2A",
"} 	c #3C3C3C",
"| 	c #434343",
"1 	c #414141",
"2 	c #404040",
"3 	c #383838",
"4 	c #2E2E2E",
"5 	c #272727",
"6 	c #A3A3A3",
"7 	c #F7F7F7",
"8 	c #FFFFFF",
"9 	c #343434",
"0 	c #9D9D9D",
"a 	c #5D5D5D",
"b 	c #2D2D2D",
"c 	c #1C1C1C",
"d 	c #212121",
"e 	c #1F1F1F",
"f 	c #232323",
"g 	c #494949",
"h 	c #DCDCDC",
"i 	c #DDDDDD",
"j 	c #262626",
"k 	c #7F7F7F",
"l 	c #5B5B5B",
"m 	c #282828",
"n 	c #1E1E1E",
"o 	c #202020",
"p 	c #373737",
"q 	c #606060",
"r 	c #848484",
"s 	c #A6A6A6",
"t 	c #E1E1E1",
"u 	c #FBFBFB",
"v 	c #E6E6E6",
"w 	c #747474",
"x 	c #595959",
"y 	c #242424",
"z 	c #737373",
"A 	c #B5B5B5",
"B 	c #D3D3D3",
"C 	c #E9E9E9",
"D 	c #FEFEFE",
"E 	c #ECECEC",
"F 	c #777777",
"G 	c #252525",
"H 	c #222222",
"I 	c #444444",
"J 	c #535353",
"K 	c #393939",
"L 	c #858585",
"M 	c #F3F3F3",
"N 	c #BEBEBE",
"O 	c #363636",
"P 	c #7C7C7C",
"Q 	c #424242",
"R 	c #BABABA",
"S 	c #EAEAEA",
"T 	c #323232",
"U 	c #B3B3B3",
"V 	c #FDFDFD",
"W 	c #B5C7DF",
"X 	c #B5CCDF",
"Y 	c #9B9B9B",
"Z 	c #2C2C2C",
"` 	c #B2B2B2",
" .	c #A5A5A5",
"..	c #797979",
"+.	c #F5F5F5",
"@.	c #EBF2F5",
"#.	c #84A5C6",
"$.	c #F6F8F9",
"%.	c #D6E0EC",
"&.	c #3D6EA5",
"*.	c #A1B9D6",
"=.	c #686868",
"-.	c #676767",
";.	c #949494",
">.	c #B9CCDE",
",.	c #32679E",
"'.	c #EDF3F9",
").	c #CDDAE8",
"!.	c #396BA4",
"~.	c #A5C2D7",
"{.	c #3D3D3D",
"].	c #5A5A5A",
"^.	c #999999",
"/.	c #BFD1E0",
"(.	c #34689F",
"_.	c #B5C9DD",
":.	c #F7F9FB",
"<.	c #85A4C9",
"[.	c #7A9EC5",
"}.	c #DFDFDF",
"|.	c #5C5C5C",
"1.	c #5E5E5E",
"2.	c #878787",
"3.	c #F8F8F8",
"4.	c #F6F9FC",
"5.	c #98B0CE",
"6.	c #799CBF",
"7.	c #F5F8FB",
"8.	c #F6FAFA",
"9.	c #525252",
"0.	c #F6F6F6",
"a.	c #8D8D8D",
"b.	c #E8ECF6",
"c.	c #92ADCB",
"d.	c #CBD7E7",
"e.	c #FAFCFE",
"f.	c #F2F2F2",
"g.	c #454545",
"h.	c #A9A9A9",
"i.	c #EDEDED",
"j.	c #F1F6FA",
"k.	c #4F81AF",
"l.	c #1F5A95",
"m.	c #7FA1C4",
"n.	c #E4E4E4",
"o.	c #656565",
"p.	c #292929",
"q.	c #CDCDCD",
"r.	c #C0CFE3",
"s.	c #2F649E",
"t.	c #26619A",
"u.	c #F1F1F1",
"v.	c #4E4E4E",
"w.	c #AAAAAA",
"x.	c #DAE3EE",
"y.	c #4272A7",
"z.	c #618DB6",
"A.	c #C2C2C2",
"B.	c #9A9A9A",
"C.	c #3E3E3E",
"D.	c #DEDEDE",
"E.	c #FAFCFD",
"F.	c #E7EDF6",
"G.	c #F7F9FC",
"H.	c #F4F4F4",
"I.	c #585858",
"J.	c #D7D7D7",
"K.	c #6E6E6E",
"L.	c #D6D6D6",
"M.	c #C8C8C8",
"N.	c #8F8F8F",
"O.	c #555555",
"P.	c #515151",
"Q.	c #F9F9F9",
"R.	c #8E8E8E",
"S.	c #FAFAFA",
"T.	c #909090",
"U.	c #2B2B2B",
"V.	c #626262",
"W.	c #DADADA",
"X.	c #4C4C4C",
"Y.	c #727272",
"Z.	c #959595",
"`.	c #AFAFAF",
" +	c #CECECE",
".+	c #D9D9D9",
"++	c #F0F0F0",
"@+	c #3F3F3F",
"#+	c #8A8A8A",
"$+	c #7D7D7D",
"%+	c #7B7B7B",
"&+	c #9F9F9F",
"*+	c #A7A7A7",
"=+	c #A2A2A2",
"-+	c #6F6F6F",
";+	c #D0D0D0",
">+	c #6D6D6D",
",+	c #313131",
"'+	c #1D1D1D",
")+	c #E7E7E7",
"!+	c #D5D5D5",
"~+	c #D4D4D4",
"{+	c #CACACA",
"]+	c #C9C9C9",
"^+	c #979797",
"/+	c #333333",
"(+	c #898989",
"_+	c #D2D2D2",
":+	c #E5E5E5",
"<+	c #808080",
"[+	c #717171",
"}+	c #C0C0C0",
"|+	c #D8D8D8",
"1+	c #A4A4A4",
"2+	c #EFEFEF",
"3+	c #A8A8A8",
"4+	c #C7C7C7",
"5+	c #CCCCCC",
"6+	c #9E9E9E",
"7+	c #E2E2E2",
"8+	c #666666",
"9+	c #4A4A4A",
"0+	c #6C6C6C",
"a+	c #474747",
"b+	c #707070",
"c+	c #B4B4B4",
"d+	c #A0A0A0",
"e+	c #4D4D4D",
"f+	c #818181",
"g+	c #CBCBCB",
"h+	c #E8E8E8",
"i+	c #C6C6C6",
"j+	c #5F5F5F",
"k+	c #C1C1C1",
"l+	c #1A1A1A",
"m+	c #1B1B1B",
"n+	c #787878",
"                                                                                                ",
"                                                          . + @ #                               ",
"                                                          $ % & * =                             ",
"                                                            - ; & > ,                           ",
"                                              $ + ' ) ! ~ { ] ^ / ] (                           ",
"                                  _ # : < [ } | 1 2 1 3 4 5 6 7 8 : 9                           ",
"                            0 a b c d d d d d d e f b g @ h 8 8 i j d                           ",
"                        k l m n d d d d d o d p q r s t u 8 8 v w d f                           ",
"                      x > d d d d d d n y z A B C 7 D 8 8 8 E F G d H I                         ",
"                    J y d d d d d d K L E 8 8 8 8 8 8 8 M N O n d d d d I                       ",
"                  P > d d d d d e Q R 7 8 8 8 8 8 8 8 S @ T d d d d d d f {                     ",
"                  Q o d d d d d T U V 8 8 8 8 W X 8 8 Y j o d d d d d d o Z `                   ",
"                 .c d d d d d o ..+.8 @.#.$.%.&.*.8 8 =.d d d d d d d d d d q                   ",
"                -.d d d d d d j ;./ 8 >.,.'.).!.~.8 8 ;.f d d d d d d d d d {.                  ",
"                ].d d d d d d m ^.V 8 /.(._.:.<.[./ 8 }.|.H d d d d d d d d -                   ",
"                1.d d d d d d f 2.3.8 4.5.6.7.8 8.8 8 8 S F 5 d d d d d d o #                   ",
"                 .n d d d d d o 9.t 8 8 / 7.V 8 8 8 8 8 8 0.% > o d d d d f k                   ",
"                  ] d d d d d d y a.8 8 8 8 8 b.c.d.e.8 8 8 f.@ 5 d d d e g.                    ",
"                  h.T d d d d d d d ;.i.D 8 8 j.k.l.m.8 8 8 8 n.: d d d - o.                    ",
"                    P 9 d d d d d d p.z q.8 8 8 r.s.t.8 8 8 8 u.v.d d [ !                       ",
"                      w.O n d d d d d G 2 N 8 8 x.y.z.8 8 8 8 A.K d O B.                        ",
"                          * C.G d d d d d | D.8 E.F.G.8 8 H.. | < I.                            ",
"                        J.P K.[ d d d d d I L.8 8 8 8 u.M.N.* O.                                ",
"                      , P.9 j d d d c 5 g ` Q.8 8 8 8 q.$ q.t                                   ",
"                  ! O d d d d T ( R.N n.S.8 8 8 8 8 8 8 8 8 8                                   ",
"                z d d d d d n 2.u.D 8 8 8 8 8 8 8 8 8 8 8 8 8                                   ",
"              T.U.d d d d d e V.W./ 8 8 8 8 8 8 8 8 8 8 8 8 8 8                                 ",
"              X.e d d d d d d e d 1 Y.Z.`._ $ $  +J.L..+}.n.+++.                                ",
"              O d d d d d d d d d n o e n 5 b [ 3 2 @+1 v.I.K.P O.                              ",
"              1 d d d d d d d d d d d d d d d d d d d e o o e d G > | @+#+                      ",
"              l o d d d d d d d d d d d d d d d d d d d d d d d d d d d e [ $+                  ",
"              %+] d d d d d d d d d d d d d d d d d d d d d d d d d d d d d n P.&+              ",
"                *+O n d d d d d d d d d d d d d d d d d d d d d d d d d d d d o p =+            ",
"                    -+- T m H e o d d d d d d d d d d d d d d d d d d d d d d d d > ;+          ",
"                            , >+1.x } K K K ,+j G G H '+'+o d d d d d d d d d d d d *           ",
"                            u ++)+n.!+~+~+~+;+{+]+]+R s ^+L v./+H d d d d d d d d d {.          ",
"              (+K.1 O - 2 F + 8 8 8 8 8 8 8 8 8 8 8 8 8 8 8 8 0.!+z ,+d d d d d d e ]           ",
"            # 5 o d d 5 R.W.+.8 8 8 V )+^ + _+:+/ 8 8 8 8 8 8 8 8 H.r j d d d d d n -.          ",
"          <+f d d d n [+0.8 8 8 8 8 }+{ O.s . + |+8 8 8 8 8 8 8 8 8  .U.d d d d d G ]+          ",
"          d d d d d j _ 8 8 8 8 8 8 | f 1++.D 8 8 8 8 8 8 8 D / 2+A g.e d d d d > ^+            ",
"          G d d d d G 3+8 8 8 8 8 8 l e K P *+4+& W.C J.;+5+`.;.>+> e d d d n @+6+7+ .          ",
"          8+d d d d n 9+E 8 8 8 8 8 ]+9.e d b 3 @+@+X.@+C.3 ,+j o d d c d < 0+5+B L  +          ",
"          )+g.H d d d d a+U )+8 8 8 8 0.^ [+9.| } - Z U.Z Z U.b p {.{ b+c+W.~+2.{               ",
"            *+v.H d d d o p.a d+5+S / 8 8 D M t $ ' s 1+s  .1+3+_ ;+L.4+Y >+@+(                 ",
"              R b+d d d d d e p.] e+8+f+^.A.A.g+i.i.i.h+ +i+; ^.k j+9+} [ 9+=.                  ",
"                  k+P.g./+j d e o d d d c l+l+e e n d c n l+m+o j /+I : A                       ",
"                        # [+n+~ : O b d d y d d d d d m /+g.]., V.[+'                           ",
"                                                                                                "};
