/* XPM */
static char * mini_gv_xpm[] = {
"22 22 136 2",
"  	c None",
". 	c #8C8C8C",
"+ 	c #777777",
"@ 	c #A5A5A5",
"# 	c #5E5E5E",
"$ 	c #565656",
"% 	c #2C2C2C",
"& 	c #4B4B4B",
"* 	c #5C5C5C",
"= 	c #595959",
"- 	c #6A6A6A",
"; 	c #DDDDDD",
"> 	c #535353",
", 	c #5B5B5B",
"' 	c #3D3D3D",
") 	c #262626",
"! 	c #202020",
"~ 	c #2B2B2B",
"{ 	c #5A5A5A",
"] 	c #8E8E8E",
"^ 	c #C3C3C3",
"/ 	c #F2F2F2",
"( 	c #B4B4B4",
"_ 	c #272727",
": 	c #212121",
"< 	c #232323",
"[ 	c #6E6E6E",
"} 	c #D9D9D9",
"| 	c #F7F7F7",
"1 	c #FDFDFD",
"2 	c #8B8B8B",
"3 	c #2D2D2D",
"4 	c #323232",
"5 	c #EEEFF0",
"6 	c #DDE6EF",
"7 	c #B9CADF",
"8 	c #DAE4EF",
"9 	c #A4A4A4",
"0 	c #585858",
"a 	c #292929",
"b 	c #222222",
"c 	c #858585",
"d 	c #EDF2F6",
"e 	c #88A7C7",
"f 	c #AFC3DB",
"g 	c #D1DEEA",
"h 	c #C8C8C8",
"i 	c #363636",
"j 	c #313131",
"k 	c #616161",
"l 	c #F4F4F5",
"m 	c #DCE4EE",
"n 	c #F7F9FB",
"o 	c #EEF3F7",
"p 	c #FDFEFE",
"q 	c #C5C5C5",
"r 	c #414141",
"s 	c #4D4D4D",
"t 	c #5F5F5F",
"u 	c #252525",
"v 	c #8D8D8D",
"w 	c #F0F0F0",
"x 	c #F9FBFD",
"y 	c #6A91BA",
"z 	c #D1DDEA",
"A 	c #FEFEFE",
"B 	c #AAAAAA",
"C 	c #373737",
"D 	c #656565",
"E 	c #F1F1F1",
"F 	c #ADC2D9",
"G 	c #D5E1EC",
"H 	c #F6F6F6",
"I 	c #898989",
"J 	c #353535",
"K 	c #878787",
"L 	c #4A4A4A",
"M 	c #E8E8E8",
"N 	c #FEFEFF",
"O 	c #E9E9E9",
"P 	c #B7B7B7",
"Q 	c #444444",
"R 	c #282828",
"S 	c #999999",
"T 	c #E1E1E1",
"U 	c #FCFCFC",
"V 	c #FFFFFF",
"W 	c #484848",
"X 	c #242424",
"Y 	c #5D5D5D",
"Z 	c #989898",
"` 	c #B6B6B6",
" .	c #C1C1C1",
"..	c #CACACA",
"+.	c #CECECE",
"@.	c #D8D8D8",
"#.	c #2A2A2A",
"$.	c #636363",
"%.	c #3B3B3B",
"&.	c #3C3C3C",
"*.	c #2F2F2F",
"=.	c #787878",
"-.	c #3F3F3F",
";.	c #404040",
">.	c #EFEFEF",
",.	c #E5E5E5",
"'.	c #DEDEDE",
").	c #CFCFCF",
"!.	c #BABABA",
"~.	c #909090",
"{.	c #474747",
"].	c #575757",
"^.	c #939393",
"/.	c #C4C4C4",
"(.	c #9D9D9D",
"_.	c #CDCDCD",
":.	c #727272",
"<.	c #C6C6C6",
"[.	c #7D7D7D",
"}.	c #666666",
"|.	c #B0B0B0",
"1.	c #BBBBBB",
"2.	c #9B9B9B",
"3.	c #4C4C4C",
"4.	c #7E7E7E",
"5.	c #8F8F8F",
"6.	c #333333",
"7.	c #B8B8B8",
"8.	c #EEEEEE",
"9.	c #757575",
"0.	c #555555",
"a.	c #525252",
"b.	c #646464",
"c.	c #848484",
"d.	c #808080",
"e.	c #424242",
"                            .               ",
"                          + @ #             ",
"                $ % & * = - ; >             ",
"          , ' ) ! ~ { ] ^ / ( %             ",
"        $ _ : < [ } | 1 / 2 3 : %           ",
"        4 : : # 5 6 7 8 9 < : : : 0         ",
"        a : b c d e f g h i : : : j         ",
"        3 : : k l m n o p q r : : s         ",
"        t u : _ v w x y z A B u C           ",
"          * j b ) D E F G H I J             ",
"          K & b : L M N O P                 ",
"        Q : R S T U V V V V                 ",
"      W : : X Y Z `  ...+.@.@.              ",
"      J : : : : ! : X a #.j C j &           ",
"      D ~ : : : : : : : : : : : : 3 $.      ",
"          j %.&.*.~ ) < ! ! : : : : _ =.    ",
"        -.;.q >.,.T '.; ).!.~.{.b : : J     ",
"    ].R : ^.| V /.(._.H V V A h R : u :.    ",
"    ~ : b <.V V [.}.|.q h 1.2.3.: *.4.(     ",
"    5.6.: L 7.8.O 9 9.k 0.a.a.b.4.5.c       ",
"      c.L ~ #.{.D d.v Z ~.d.[ k $.=         ",
"            D e.#.: ! : ) -.# d.            "};
