/* XPM */
static char * mini_mozilla_firefox_xpm[] = {
"16 16 181 2",
"  	c None",
". 	c #5383A8",
"+ 	c #787E8F",
"@ 	c #EBC2A5",
"# 	c #DE9E88",
"$ 	c #DC8775",
"% 	c #5C7DA2",
"& 	c #B7C7D7",
"* 	c #DEBFBE",
"= 	c #D09A82",
"- 	c #F2C49D",
"; 	c #DD6E55",
"> 	c #DA4E39",
", 	c #CE553C",
"' 	c #D56B5A",
") 	c #23608C",
"! 	c #49769F",
"~ 	c #B4C3D7",
"{ 	c #C0B6C1",
"] 	c #B27E6A",
"^ 	c #BC885F",
"/ 	c #F89B5B",
"( 	c #E4815D",
"_ 	c #CC717D",
": 	c #BF3F41",
"< 	c #C22F14",
"[ 	c #CE5B48",
"} 	c #0E4F86",
"| 	c #6F8EB0",
"1 	c #90A8C3",
"2 	c #C58E7A",
"3 	c #D37765",
"4 	c #BB7C82",
"5 	c #AC8396",
"6 	c #9E9EB5",
"7 	c #92AFC9",
"8 	c #5A7A9E",
"9 	c #933E48",
"0 	c #C13824",
"a 	c #195C8E",
"b 	c #16598E",
"c 	c #5277A0",
"d 	c #7392B4",
"e 	c #7A92B1",
"f 	c #7B95B5",
"g 	c #7A99B9",
"h 	c #7C9BBC",
"i 	c #7EA3C4",
"j 	c #7AAAC8",
"k 	c #3C7AA7",
"l 	c #2B5282",
"m 	c #CA5F56",
"n 	c #C64934",
"o 	c #186198",
"p 	c #2D77A9",
"q 	c #3B79A9",
"r 	c #5C88AF",
"s 	c #648EB2",
"t 	c #6992B5",
"u 	c #6A95B9",
"v 	c #74AFD3",
"w 	c #7BC0E3",
"x 	c #67B0D7",
"y 	c #3B86B8",
"z 	c #2A6697",
"A 	c #CF6052",
"B 	c #CF4D3B",
"C 	c #2776AF",
"D 	c #4698C8",
"E 	c #5DB3E0",
"F 	c #59ABD7",
"G 	c #5A9AC7",
"H 	c #5F97BD",
"I 	c #6BBDE4",
"J 	c #70C6EE",
"K 	c #6DC7EF",
"L 	c #62C0E9",
"M 	c #54ABD7",
"N 	c #856878",
"O 	c #E1A99F",
"P 	c #E3735C",
"Q 	c #358DCB",
"R 	c #5AB6E7",
"S 	c #6DC4EB",
"T 	c #84AFCA",
"U 	c #7FA7C2",
"V 	c #619EC5",
"W 	c #67A9CD",
"X 	c #6CAACD",
"Y 	c #6DABCC",
"Z 	c #6BC2E9",
"` 	c #89A0B8",
" .	c #D16C5B",
"..	c #D4938F",
"+.	c #E87D62",
"@.	c #40A3E8",
"#.	c #69D1FC",
"$.	c #7FC3E2",
"%.	c #CB706A",
"&.	c #EE8E7E",
"*.	c #D68C84",
"=.	c #7AA2BE",
"-.	c #79AECC",
";.	c #7EACCA",
">.	c #AC939A",
",.	c #D35D49",
"'.	c #C45E53",
").	c #D17765",
"!.	c #F27850",
"~.	c #44B0F4",
"{.	c #75EAFD",
"].	c #7DEBFE",
"^.	c #8FAECB",
"/.	c #F18A79",
"(.	c #F3BBAB",
"_.	c #DB8B86",
":.	c #C18988",
"<.	c #DB877D",
"[.	c #DF7260",
"}.	c #C95B36",
"|.	c #D66541",
"1.	c #E88854",
"2.	c #F87440",
"3.	c #4AB6EB",
"4.	c #7DE3ED",
"5.	c #B8B2A4",
"6.	c #C9988C",
"7.	c #EF9D88",
"8.	c #FBDCB0",
"9.	c #F8BD93",
"0.	c #F5AB82",
"a.	c #E0734C",
"b.	c #D96C3F",
"c.	c #EFAE6D",
"d.	c #F6BD75",
"e.	c #F79759",
"f.	c #F6824B",
"g.	c #9F8A8B",
"h.	c #D37666",
"i.	c #EB6850",
"j.	c #F57F59",
"k.	c #F9C88F",
"l.	c #F9B977",
"m.	c #EE7036",
"n.	c #F15F2B",
"o.	c #EE5D34",
"p.	c #F9DD8A",
"q.	c #F9C678",
"r.	c #F79054",
"s.	c #DC895E",
"t.	c #F49A5B",
"u.	c #F6B066",
"v.	c #FABC5D",
"w.	c #F79D32",
"x.	c #F78C26",
"y.	c #F08239",
"z.	c #F0B26D",
"A.	c #F7C477",
"B.	c #F89C5C",
"C.	c #EE6D46",
"D.	c #F55A2D",
"E.	c #F6703F",
"F.	c #FBB16E",
"G.	c #FCDC83",
"H.	c #FAB651",
"I.	c #F58B2F",
"J.	c #EE803E",
"K.	c #F19757",
"L.	c #F5985A",
"M.	c #F5A260",
"N.	c #EDA460",
"O.	c #FCC677",
"P.	c #FDC97C",
"Q.	c #FDBE74",
"R.	c #FCB469",
"S.	c #F9C074",
"T.	c #E8B772",
"U.	c #EAC06F",
"V.	c #F5C76F",
"W.	c #F6CA71",
"X.	c #EDCD75",
"            . + @ # $           ",
"        % & * = - ; > , '       ",
"    ) ! ~ { ] ^ / ( _ : < [     ",
"    } | 1 2 3 4 5 6 7 8 9 0     ",
"  a b c d e f g h i j k l m n   ",
"  o p q r s t u v w x y z A B   ",
"  C D E F G H I J K L M N O P   ",
"  Q R S T U V W X Y Z `  ...+.  ",
"  @.#.$.%.&.*.=.-.;.>.,.'.).!.  ",
"  ~.{.].^./.(._.:.<.[.}.|.1.2.  ",
"  3.4.5.6.7.8.9.0.a.b.c.d.e.f.  ",
"    g.h.i.j.k.l.m.n.o.p.q.r.    ",
"      s.t.u.v.w.x.y.z.A.B.      ",
"  C.D.E.F.G.H.I.J.K.L.M.        ",
"        N.O.P.Q.R.S.T.          ",
"          U.V.W.X.              "};
