/* XPM */
static char * mini_ghostview_xpm[] = {
"16 16 86 1",
" 	c None",
".	c #959595",
"+	c #6A6A6A",
"@	c #484848",
"#	c #B3B3B3",
"$	c #4C4C4C",
"%	c #4A4A4A",
"&	c #282828",
"*	c #212121",
"=	c #515151",
"-	c #8A8A8A",
";	c #D6D6D6",
">	c #C0C0C0",
",	c #262626",
"'	c #353535",
")	c #363636",
"!	c #D1D1D1",
"~	c #F7F9FB",
"{	c #949494",
"]	c #232323",
"^	c #202020",
"/	c #8E8E8E",
"(	c #B3C7DB",
"_	c #B0C4DB",
":	c #DCE5EF",
"<	c #525252",
"[	c #2D2D2D",
"}	c #242424",
"|	c #6B6B6B",
"1	c #F2F5F9",
"2	c #EBF0F6",
"3	c #ECF1F6",
"4	c #EDEDED",
"5	c #3A3A3A",
"6	c #616161",
"7	c #7E7E7E",
"8	c #F6F7F7",
"9	c #648DB7",
"0	c #FFFFFF",
"a	c #B5B5B5",
"b	c #323232",
"c	c #5A5A5A",
"d	c #222222",
"e	c #C4C4C4",
"f	c #FBFCFE",
"g	c #D8D8D8",
"h	c #767676",
"i	c #303030",
"j	c #A5A5A5",
"k	c #F4F4F4",
"l	c #464646",
"m	c #666666",
"n	c #6E6E6E",
"o	c #777777",
"p	c #5F5F5F",
"q	c #2C2C2C",
"r	c #646464",
"s	c #5E5E5E",
"t	c #797979",
"u	c #656565",
"v	c #606060",
"w	c #585858",
"x	c #474747",
"y	c #414141",
"z	c #C8C8C8",
"A	c #D5D5D5",
"B	c #FAFAFA",
"C	c #F9F9F9",
"D	c #FDFDFD",
"E	c #545454",
"F	c #999999",
"G	c #B4B4B4",
"H	c #AFAFAF",
"I	c #909090",
"J	c #2B2B2B",
"K	c #888888",
"L	c #535353",
"M	c #ABABAB",
"N	c #CDCDCD",
"O	c #9E9E9E",
"P	c #8C8C8C",
"Q	c #7D7D7D",
"R	c #7A7A7A",
"S	c #828282",
"T	c #252525",
"U	c #4D4D4D",
"          .     ",
"        +@#$    ",
"    %&*=-;>,    ",
"   '*)!~~{]*@   ",
"   ^*/(_:<**[   ",
"   }*|1234=*5   ",
"   6]*7890ab    ",
"    cd,efgh     ",
"   i^jk000      ",
"  )**}lcmno     ",
"  p]********qr  ",
"    stuvwx&**d  ",
"  yb>0zAB0Co**  ",
"  *lD0EFGHI)JK  ",
"  =*LMNHOPQRS   ",
"    <5Td]qU     "};
